<svg width="214" height="26" viewBox="0 0 214 26" fill="none" xmlns="http://www.w3.org/2000/svg">
<g id="Frame 1796">
<path id="Vector" d="M40.2581 16.1333C40.2581 19.0567 37.8938 21.2816 33.7793 21.2816C29.6647 21.2816 27.209 19.0567 27 15.7065H29.6516C29.7692 17.8408 31.1407 19.2119 33.7401 19.2119C35.8953 19.2119 37.502 18.203 37.502 16.4697C37.502 15.0597 36.5746 14.3612 34.6152 13.9473L32.1595 13.4816C29.7692 13.0159 27.6009 11.8259 27.6009 8.96716C27.6009 6.10846 30.1088 4 33.6225 4C37.1362 4 39.814 6.13433 40.023 9.47164H37.3713C37.2277 7.45373 35.7647 6.05672 33.6356 6.05672C31.5064 6.05672 30.2263 7.35025 30.2263 8.799C30.2263 10.39 31.624 10.9463 33.2045 11.2826L35.7124 11.7741C38.6253 12.3562 40.245 13.6239 40.245 16.1333H40.2581ZM50.4335 15.9393V8.63085H52.8238V21.0358H50.6033V19.0697C49.9371 20.3632 48.4742 21.2687 46.7761 21.2687C44.242 21.2687 42.4917 19.794 42.4917 16.6119V8.63085H44.8821V16.1463C44.8821 18.2935 45.9662 19.1861 47.5337 19.1861C49.1011 19.1861 50.4465 17.8796 50.4465 15.9264L50.4335 15.9393ZM67.8584 14.8398C67.8584 18.591 65.6901 21.2816 62.3331 21.2816C60.635 21.2816 59.1851 20.4408 58.2969 18.9403V25.5632H55.9065V8.64378H58.1271V10.9204C59.0284 9.32935 60.5566 8.41094 62.3331 8.41094C65.6639 8.41094 67.8584 11.1015 67.8584 14.8527V14.8398ZM65.3766 14.8398C65.3766 12.0587 63.8875 10.4806 61.8367 10.4806C59.786 10.4806 58.2969 12.0458 58.2969 14.8398C58.2969 17.6338 59.8382 19.1731 61.8367 19.1731C63.8352 19.1731 65.3766 17.6338 65.3766 14.8398ZM75.1993 21.2816C71.5811 21.2816 69.1515 18.6816 69.1515 14.7751C69.1515 11.1015 71.6856 8.41094 75.134 8.41094C78.8698 8.41094 81.3516 11.4119 80.9205 15.4348H71.5811C71.764 17.9572 73.044 19.4318 75.147 19.4318C76.9235 19.4318 78.1513 18.4746 78.5563 16.8577H80.9205C80.3066 19.6259 78.1513 21.2816 75.1993 21.2816ZM75.0817 10.1831C73.1616 10.1831 71.8685 11.5413 71.6072 13.8567H78.3865C78.2689 11.5672 77.0149 10.1831 75.0817 10.1831ZM85.5968 14.6975V21.0358H83.2064V8.64378H85.427V11.2697C86.3021 9.56219 88.1961 8.48856 90.2469 8.48856V10.9463C87.5561 10.804 85.5968 11.9811 85.5968 14.7104V14.6975ZM96.8041 21.3075C93.3818 21.3075 90.9653 18.6428 90.9653 14.8527C90.9653 11.0627 93.421 8.41094 96.8041 8.41094C99.8998 8.41094 102.146 10.4418 102.591 13.6756H100.083C99.8214 11.6836 98.5675 10.4935 96.8171 10.4935C94.7664 10.4935 93.4079 12.2269 93.4079 14.8527C93.4079 17.4786 94.7533 19.2119 96.8171 19.2119C98.5936 19.2119 99.8214 18.0478 100.109 16.0298H102.591C102.16 19.3025 99.939 21.3204 96.8041 21.3204V21.3075ZM107.149 14.0507V21.0488H104.759V4.23284H107.149V10.6229C107.972 9.29055 109.252 8.39801 110.976 8.39801C113.55 8.39801 115.261 10.0408 115.261 13.003V21.0358H112.87V13.805C112.87 11.6706 111.93 10.4806 110.154 10.4806C108.521 10.4806 107.149 11.8388 107.149 14.0378V14.0507ZM125.776 21.0488V19.1343C124.992 20.5184 123.608 21.2816 121.753 21.2816C119.153 21.2816 117.455 19.807 117.455 17.5303C117.455 15.0985 119.415 13.8308 123.15 13.8308C123.882 13.8308 124.47 13.8567 125.489 13.9731V13.0547C125.489 11.2697 124.522 10.2736 122.863 10.2736C121.113 10.2736 120.055 11.3085 119.976 13.0418H117.808C117.926 10.2607 119.937 8.41094 122.863 8.41094C125.959 8.41094 127.761 10.1443 127.761 13.0935V21.0488H125.776ZM119.728 17.4657C119.728 18.7592 120.695 19.6 122.236 19.6C124.248 19.6 125.502 18.3582 125.502 16.4697V15.4607C124.574 15.3443 123.921 15.3184 123.307 15.3184C120.917 15.3184 119.741 16.0169 119.741 17.4657H119.728ZM133.626 5.7592C133.626 6.65174 132.921 7.32438 131.902 7.32438C130.883 7.32438 130.152 6.65174 130.152 5.7592C130.152 4.86667 130.883 4.19403 131.902 4.19403C132.921 4.19403 133.626 4.85373 133.626 5.7592ZM133.104 21.0488H130.713V8.64378H133.104V21.0488ZM138.577 14.0507V21.0488H136.186V8.64378H138.407V10.7005C139.256 9.31642 140.68 8.41094 142.404 8.41094C144.977 8.41094 146.688 10.0537 146.688 13.0159V21.0488H144.298V13.8179C144.298 11.6836 143.358 10.4935 141.581 10.4935C139.948 10.4935 138.577 11.8517 138.577 14.0507ZM160.913 16.405C160.913 19.3801 158.745 21.0358 155.545 21.0358H149.941V4.23284H155.113C158.327 4.23284 160.169 5.77214 160.169 8.51443C160.169 10.2219 159.058 11.7224 157.256 12.3045C159.672 12.8219 160.9 14.3353 160.9 16.405H160.913ZM155.1 5.20298H151.064V11.9164H155.1C157.608 11.9164 159.045 10.6488 159.045 8.56617C159.045 6.48358 157.608 5.19005 155.1 5.19005V5.20298ZM155.505 12.8478H151.064V20.0786H155.505C158.17 20.0786 159.803 18.7463 159.803 16.405C159.803 14.0637 158.17 12.8478 155.505 12.8478ZM165.289 14.2577V21.0488H164.205V8.78607H165.25V11.7353C166.06 9.8209 167.875 8.55323 169.926 8.55323V9.70448C167.353 9.67861 165.289 11.606 165.289 14.2706V14.2577ZM173.427 5.92736C173.427 6.50945 172.982 6.96219 172.382 6.96219C171.781 6.96219 171.324 6.52239 171.324 5.92736C171.324 5.33234 171.768 4.97015 172.382 4.97015C172.996 4.97015 173.427 5.37114 173.427 5.92736ZM172.93 21.0488H171.846V8.78607H172.93V21.0488ZM175.53 14.8915C175.53 11.0756 177.659 8.55323 180.963 8.55323C182.949 8.55323 184.647 9.71741 185.457 11.6706V4.23284H186.541V21.0358H185.496V18.1771C184.673 20.1174 182.988 21.2687 180.963 21.2687C177.633 21.2687 175.53 18.7204 175.53 14.8786V14.8915ZM176.64 14.8915C176.64 18.3065 178.338 20.3632 181.055 20.3632C183.772 20.3632 185.496 18.19 185.496 14.8398C185.496 11.4896 183.654 9.45871 181.055 9.45871C178.455 9.45871 176.64 11.4896 176.64 14.8915ZM194.626 25.8219C191.531 25.8219 189.637 24.2308 189.493 21.5403H190.538C190.708 23.7393 192.145 24.9294 194.6 24.9294C197.265 24.9294 198.663 23.5194 198.663 20.9065V18.0736C197.905 19.9751 196.325 21.0876 194.365 21.0876C191.217 21.0876 189.166 18.604 189.166 14.7881C189.166 10.9721 191.217 8.5403 194.365 8.5403C196.298 8.5403 197.931 9.73035 198.715 11.6965V8.77313H199.76V20.8806C199.76 24.0109 197.892 25.8219 194.626 25.8219ZM190.277 14.801C190.277 18.1512 191.857 20.1562 194.483 20.1562C197.108 20.1562 198.715 18.0995 198.715 14.9303C198.715 11.5801 197.056 9.45871 194.483 9.45871C191.91 9.45871 190.277 11.4766 190.277 14.801ZM208.041 21.3075C204.658 21.3075 202.385 18.7075 202.385 14.801C202.385 11.2179 204.75 8.55323 207.911 8.55323C211.32 8.55323 213.514 11.2438 213.344 15.1761H203.469C203.613 18.3841 205.337 20.4149 208.028 20.4149C210.327 20.4149 211.908 19.1085 212.326 16.9095H213.384C212.887 19.6 210.837 21.3075 208.015 21.3075H208.041ZM207.924 9.39403C205.442 9.39403 203.639 11.3861 203.509 14.3353H212.234C212.064 11.2438 210.458 9.39403 207.937 9.39403H207.924Z" fill="#F0F1F1"/>
<path id="Vector_2" d="M19.2536 11.2537H17.7123C17.007 11.2537 16.4322 10.9691 16.4322 10.6069V8.73131C16.4322 8.49848 16.2493 8.31738 16.0142 8.31738H13.2059C12.9707 8.31738 12.7879 8.49848 12.7879 8.73131V12.8706C12.7879 13.194 13.3104 13.4527 13.9504 13.4527H14.4468C15.0868 13.4527 15.6093 13.7114 15.6093 14.0348V17.5403C15.6093 17.8637 15.0868 18.1224 14.4468 18.1224H13.9504C13.3104 18.1224 12.7879 18.3811 12.7879 18.7044V20.6447C12.7879 20.9681 12.2654 21.2268 11.6253 21.2268H4.20605V23.9303C4.20605 25.0816 5.14653 26 6.296 26H12.4744C13.1797 26 13.7545 25.7154 13.7545 25.3532V23.9303C13.7545 23.5811 14.3292 23.2836 15.0346 23.2836H15.1391C15.8444 23.2836 16.4192 22.999 16.4192 22.6368V20.9552C16.4192 20.6059 16.9939 20.3084 17.6992 20.3084H19.2406C19.9459 20.3084 20.5207 20.0239 20.5207 19.6617V11.8617C20.5207 11.5124 19.9459 11.2149 19.2406 11.2149L19.2536 11.2537Z" fill="#AAA0EE"/>
<path id="Vector_3" d="M1.28009 14.7463H2.82142C3.52678 14.7463 4.10151 15.0308 4.10151 15.393V17.1781C4.10151 17.4497 4.32357 17.6697 4.59787 17.6697H7.24949C7.52379 17.6697 7.74585 17.4497 7.74585 17.1781V13.1164C7.74585 12.793 7.22336 12.5343 6.58332 12.5343H6.08696C5.44691 12.5343 4.92443 12.2756 4.92443 11.9522V8.44677C4.92443 8.12338 5.44691 7.86468 6.08696 7.86468H6.58332C7.22336 7.86468 7.74585 7.60597 7.74585 7.28259V5.34229C7.74585 5.01891 8.26833 4.7602 8.90838 4.7602H16.3277V1.34527C16.3277 0.60796 15.7138 0 14.9692 0H8.05934C7.35398 0 6.77925 0.284577 6.77925 0.646766V2.06965C6.77925 2.41891 6.20452 2.71642 5.49916 2.71642H5.39466C4.68931 2.71642 4.11457 3.00099 4.11457 3.36318V5.04478C4.11457 5.39403 3.53984 5.69154 2.83448 5.69154H1.28009C0.574734 5.69154 0 5.97612 0 6.33831V14.1383C0 14.4876 0.574734 14.7851 1.28009 14.7851V14.7463Z" fill="#AAA0EE"/>
</g>
</svg>
